<svg xmlns="http://www.w3.org/2000/svg" viewBox="0 0 73.2 11.6">
  <defs>
    <style>.cls-1{fill:#B5B5B6;fill-rule:evenodd;}</style>
  </defs>
  <title>Asset 6</title>
  <g id="Layer_2" data-name="Layer 2">
    <g id="Layer_1-2" data-name="Layer 1">
      <path class="cls-1" d="M73.2,4.74H68.36l-1,.89h-58V1.09H9.09V.43H6.48v.66H5.74v.66H5.22V4.4H4.71v-4H4.27V.2h.11V0H3.86V.2H4V.43H3.35L3,4.4H2.91V5.63H0v6H1.55v-.8c-.19-.09-.3-.2-.3-.31V9.71h.41a1,1,0,0,1,1.14.89c0,.11,0,.2-.08.2v.11H2.29V10.6H2.07v.31h-.3v.23h.3v.46h.22v-.46h.44v.11c.08.11.41.34,1.25.34H72.66L71.41,8.83l1.8-4.09Z"/>
    </g>
    </g>
</svg>
