<svg xmlns="http://www.w3.org/2000/svg" viewBox="0 0 73.31 19.44"><defs><style>.cls-1{fill:#003087;fill-rule:evenodd;}</style></defs><title>Asset 4</title><g id="Layer_2" data-name="Layer 2"><g id="Layer_1-2" data-name="Layer 1"><path class="cls-1" d="M32.14,10v-.7h1.25V10ZM31,9.93V9.44H29.83v.49Zm-3.46-.49v.49h1.14V9.44ZM35.7,10v-.7H34.45V10Zm2.31.1v-.8H36.74v.8Zm-12.38-.7v.39h.73V9.44Zm46.29,1.5H66.37v.39H69.2l2.53-.21.19-.18Zm-3.24.88H66.37v.8h1.47l.84-.8Zm-62.43-.7L6.18,9.65H5.12v.59a1.47,1.47,0,0,1,.33.88ZM5.12,9.34H6.18l-.11-1.5h-1v1.5Zm0-1.89H6l-.11-1.6H5.12v1.6Zm0-1.89h.73L5.74,4.37H5.12V5.56Zm0-1.6h.63L5.44.78H5.12V4ZM4.71.78H4.38L4.16,4h.54V.78Zm0,3.59H4.08V5.56h.63V4.37Zm0,1.47H4.08L4,7.45h.73V5.84Zm0,2H3.86v1.5h.84V7.84Zm0,1.81H4.49a1.34,1.34,0,0,0,.22.18V9.65Zm68.6.88v.41h-.54l-.84.7-2.5.18-1.36,1.29-1.58,3.1h0c0,.08-.11.08-.11.18l-.08.21h0a.62.62,0,0,0,.41.91s1.25.49,1.14,1.29c0,.59-1.77.59-1.77.59h-.22a3,3,0,0,1-1,0H3.65c-.84,0-1.14-.21-1.14-.31V19H2.07v.41H1.88V19H1.55V18.8h.33v-.31h.19v.31h.33a.1.1,0,0,0,.11-.1l.11-.1a1.13,1.13,0,0,0-1.06-.91H1.14v.7c0,.1,0,.21.3.31v.7H0V16.5H0V14.22H0v-1.5H1.66v-1.6h.41V9.05a3.4,3.4,0,0,1,1.39.18L4,.39h.73V0h.41V.39h.63l1,10.73H9.52v1.6l1.25.21v.78l14.56.1V11.12H37.28v2.69h1.44V9.34H40v4.47H54.86l1.25-3H58V9.23h1.88V7.34h2.2V9.13l.93.62V11h2.1v1.58h.73V11.53L65,10.94h0v-.41Z"/></g></g></svg>