<svg xmlns="http://www.w3.org/2000/svg" viewBox="0 0 73.31 8.7"><defs><style>.cls-1{fill:#003087;fill-rule:evenodd;}</style></defs><title>Asset 5</title><g id="Layer_2" data-name="Layer 2"><g id="Layer_1-2" data-name="Layer 1"><path class="cls-1" d="M72.47,2.55h-.33V2.09h.33v.46Zm0,1.31h-.33V3.33h.33v.53ZM71.11,2.55h-.54V2.09h.54v.46Zm0,1.31h-.54V3.33h.54v.53ZM7.62,4.48H6.91v-.9l.71-.53V4.48ZM6.91,3h0V3Zm-.44.34H3.76L1.44,3.24,1.14,3H6.48v.34Zm0,1.15H5.12l-.84-.8h2.2v.8ZM69.83,1.56V3.95H68.9v.44l-.11.09H29.09V2.27h6.83V2l-6.29-.37-1.36.62h-.11v2.2H14.34V1.56h-1.8V.07L10.45,0V1.49L9.52,2V3H7.73V2.71H0V3H.41l.84.6,2.39.09L5,4.91,4.9,6.59H5V8.7H6.26V8.17c-.19-.09-.19-.18-.19-.28V7.28h.41s.84,0,1,.71c0,.09,0,.09-.11.09v.09H7V7.9H6.8v.28H6.48v.16H6.8V8.7H7V8.33h.33v.09a1.74,1.74,0,0,0,1.14.28H69.64s.84-.09.93-.8c0-.44-.93-1-.93-1s-.33,0-.22-.34l.52-1c0-.09.11-.09.22-.09h1v.69h0V8.7h1V6.22h0V5.1A4.37,4.37,0,0,1,73,4.82V4.29c0-.25.33-.34.33-.34V1.56Z"/></g></g></svg>