<svg xmlns="http://www.w3.org/2000/svg" viewBox="0 0 73.31 10.83"><defs><style>.cls-1{fill:#003087;fill-rule:evenodd;}</style></defs><title>Asset 7</title><g id="Layer_2" data-name="Layer 2"><g id="Layer_1-2" data-name="Layer 1"><path class="cls-1" d="M72,8.52s-1-.11-.52-.83h0c.11,0,.11,0,.11-.11h0L73,5H66.81L65.12,2.49H19V1.55H15.59v.94l-5.44-.11L8.9,3.32V0H5.74L5,2.28H4.16L4.08,0h-1L3,2.28H2.18V5H0v5.81H1.55V10c-.19,0-.19-.21-.3-.32V8.92h.41a1.18,1.18,0,0,1,1.14.94c0,.11,0,.11-.08.21v.11H2.29V9.75H2.07v.43h-.3v.19h.3v.43h.22v-.43h.44v.11A2.45,2.45,0,0,0,4,10.79H70.89s2.31.32,2.42-1A1.24,1.24,0,0,0,72,8.52Z"/></g></g></svg>