<svg xmlns="http://www.w3.org/2000/svg" viewBox="0 0 59.29 7.97"><defs><style>.cls-1{fill:#003087;fill-rule:evenodd;}</style></defs><title>Asset 8</title><g id="Layer_2" data-name="Layer 2"><g id="Layer_1-2" data-name="Layer 1"><path class="cls-1" d="M58.22,6.24s-.85,0-.52-.58h0l1.4-2H53.37L52,2.4H20.5V.56h6.26V.28L21,0,19.81.56h0V2.25h-.69V1.69H16v.56H11.11l-1,.73V0h-3L6.42,1.69H5.73L5.54,0H4.86L4.69,1.69H4v2H0A4.46,4.46,0,0,0,3.29,7.93h.16V7.37c-.33,0-.33-.15-.33-.28V6.51h.33s.88,0,1,.71v.15s-.16,0-.16.13H4V7.22H3.81V7.5H3.46v.15h.36v.28H4V7.65h.36c.16,0,.16,0,.16.15a3.37,3.37,0,0,0,1,.13H57.18s2.11.3,2.11-.71-1.07-1-1.07-1Z"/></g></g></svg>