<svg xmlns="http://www.w3.org/2000/svg" viewBox="0 0 73.31 11.46"><defs><style>.cls-1{fill:#003087;fill-rule:evenodd;}</style></defs><title>Asset 3</title><g id="Layer_2" data-name="Layer 2"><g id="Layer_1-2" data-name="Layer 1"><path class="cls-1" d="M7.84,8.8Zm63.9-1.89c.41-.43,1.47-.86,1.47-1,0,.11.11-4.09.11-4.09H69.64V3.74H63.46V5.29H33.17V3.63H26.59V5.29H9.2V4.4h0V1.09H9V.31H6.48v.77H5.74v.66H5.22V4.4H4.82v-4H4.38V.31H4.27V.2h.11V0H3.86V.2H4V.31H3.86V.43H3.46l-.33,4H3v.89H0v2.4H0v3.77H1.55v-.77a.4.4,0,0,1-.3-.34V9.57h.3a1.07,1.07,0,0,1,1.17.89c0,.11-.11.11-.11.23v.09H2.18v-.43H2v.43H1.66V11H2v.46h.19V11h.44v.11a2,2,0,0,0,1.25.34H72c.33,0,1-.77,0-1.46s-.93-1.09-.93-1.31a3,3,0,0,1,.63-1.77Z"/></g></g></svg>