<svg xmlns="http://www.w3.org/2000/svg" viewBox="0 0 252.16 122.05"><defs><style>.cls-1{fill:#d9d9d9;fill-rule:evenodd;}</style></defs><title>Asset 3</title><g id="Layer_2" data-name="Layer 2"><g id="Layer_1-2" data-name="Layer 1"><path class="cls-1" d="M161.31,6.11l-1.21-.25v-1l1,.58.23.64Zm-3.57,81.15-.9,2.25-2.53,1.22-.51,4.11.59,2.58h2.45l1.29-4.83.82-2.91L158.3,87l-.56.22Zm-35-52.65-.48.8h-1l.56.47-.65,1.22.73.08-.39.47-.82,1,1.21-.56,2.11-.67,1.63-.86-.14-.89-.82-.67-.08-1.53-1.24-.56L124,32l-.39-.64h-1.24l1.32-1L123.37,29h-.23l-.42,1-1.46.47-.65.33v2.08l1.29,1.05.82.72Zm-2.93,2.8.9-.8-.42-1.53.42-.89-1.07-1-1.72.89.31,1.53-.65,1.78,2.22.06ZM133,8.6l1.29,1.53,1.72-1,1-1.86,1.13.89-.9.89,2,.5,1.15-.42.17-.8-2.22-.64-2.45-2.16-1.29-.25-.42.8h-2.7l-.06,1,2.19.89L133,8.6Zm4.64-2.16,1.55.39,1.55-.47,1.15-.25-.34-.8-4.89.25,2,.56-1,.33Zm26.78-1.55-1.58-.06-.48.47h2.05V4.88Zm-4.89-.64-1.15-.56V4.83l1.29.06-.14-.64Zm-2.7,2.25,2.11-.14-.82-.8-.82-.08-1.8-1.14-2,.56-.51.67L154.7,5l2.14,1.53ZM223.25,43l.68-.67-1.55-1.11-.68-.64-1.8-3.39.68,3.61.31,6.13,1.8-1.53-1.21-2.75.65-1,1.13,1.3Zm-3.66,11.43L222.77,52l-.48-1.78-1.15-2.41h-.73l.17,2.41-1.72,2.08-3,.64-.87.89,3.91-.31.73.89ZM225,46.68l-.73-.72-2.36.72.17.8.9,1.3,2-2.11Zm14.63-28.09-2.87-.67-.82.67.82.94,2.87-.94ZM214,13.43l4.3.56-.39-.8-5.79-1-1,.67L209.07,12l-.34,1.44,3.68.56,1.63-.56ZM228.9,42.66l.31-1.86-.73,1.86-3.09,2.41,3.52-2.41ZM217.45,54.42l-2.19.31.82,2.19,1.38.22V54.42Zm-.39,4.25-1.72,1.05-2.53,1.22,2.87-.89,1.38-1.39ZM183.76,10l1-2.33,2.93,1.53-.87-3.3-6.22-1.36L181.81,7l-3.68-.56L183.76,10ZM120,30.75l.25-.5-.9.5.82.89-.17-.89ZM124.27,28V27l-.25.64-.73.42.51.56.48-.64Zm36.48-16.6-2.36.8L157.74,14l-.9,2.19,1.55,1.11,2-.47-1.13-1,1.21-2.75,2.7-1.11,3.6-1.05V9.88h-1.63l-1.24.89-3.18.64Zm38,69.91,1.07.56-.9,2.41-2.78-.89-2.28-3.94-1.8-2.75-1.29-1.78,2.11.89,1.72,2.75,2.28,1.69-2.45-3.86-.23-2.28L192.9,70l-1.72.67h0l-.65,3.05V70l.48.5L189.89,67l-1.32-2.75-4.3,1.78L181,68.27l-.51,4.83-2.28.56L175.68,69l-1.24-4.69-1.55-2.55h-4.56l-3.26-1.3-3.68-.56-3-2.11.65,2.28,1.55,1.36h1.55l1.88-.47,2.05,1.36,1.13,1.86-2.11,1.36v2.41L161.39,69l-3,1.69-3.77-.17-.23-2.91-2.53-3.3v-2L150,60.78l-1-.58,1.24,3.64.73,2.75,4.47,4.91,2.62.22.82-.56h1.07l.48,1.53-.48,2.11-1.29,1L158.38,77l-1.32,1.78-1.63.8-2.45,2L151.61,84v4l.51.67.14,2.41L151.86,93l-3.52,1.14-1.07,1.05.9,1.53V98.3l-2.11,1.83-1.72.89v2l-.9.64-.65,2.08-2.7,1.3H136l-.9-.89v-3.77l-.82-.8L133,96.36l-1.8-1.19-.08-1.47-.9-.94.9-1.78.25-1.94.65-3-.34-3.22L129,80.56l-.06-2.47,1.63-2-.9-1h-2.22l-1.94-1.53-1.24,1.28-4.33.58-3.35-.64-1-1.47-1.72-.64-.68-2.08L111,69.16l-.48-2.58.82-3.22-.56-2.83L112.85,57l1.8-1.36.9-2.58,1.63-1,1.46-1.75h.82l-1-.17-.73-2.33V45.4l2.53-1,2.19.72.68-2.16-1.32-1-1.13-1.14L124,39.69l2.78-1.86.82-2.08,2.28-.5-.73-1.69.73-1,1.55.31v2.11h2.22l1.8.47,2.76-1.86.42-1.91,2,.56L140,31l3.09-.8-4.3-.39v-3.3l1.86-2.41-2,.33-2.36,3,1.13,2.89-1,.72-1,2.91-1.8.72-1.07-2.08-1.15-1.39-1.77.5-1.88-1.39.65-2.89,4.16-2.41,1.38-3.3-1.38-.33,2.05-1.83,3-.25,1.72-.89,2.53.56,1.21-.56L145,19.48l.9-.58,3.26,1.78,2.14,2.41-2.31.64-1.38-1h-2.28l2.28,2.5h2.62l2.19-1.75-.9-2.41,1.8.22,1.29,1.44,2.14-1.44,3.83-.22.59-1.22,1-1,3,1.53,1.38-2.72,3-.58,2.39,3.3-.82-3,1.29,1.14,2.45-.25V16.73l2.53-.25,1.24-1.86,6-.86L189,12.21l4.89,1-1,2.75,4.42.25,4.89.94L205,19.48l.59-1.14,3.09.25h2.45l-.56-1.14,6.19,1.14,1.88,1.28,4.89.56,2,.89h8.8l4.81,2.19,3.6.22,3.18,1.78v1l-1.63.56,1.29,1h-1.94L241,27h-2l1.72,1.39v1.75l-3.43.5-3.83,1.86-2.53-.33-.39,1.36,1.94.33-.31,3.47-2.62,3.77L228,39.69l-1.24-5.08,2.05-1.78,1.72-2.58h-3.12l-1.94,1.39v1.75l-3-.39-3.74-.8-3.43,1.36-1.63,2.91,2.19.89,2.87.47.9,3.05-.73,4.27-3.91,1.78.31,1.44-2.19,3.39,1.63,1.78-.42,2.16h-2.45L211.26,53l.34-1.44-2.53.25-.68-1.61-1.55,1.36.34,1.14,2.62.89-1.63,1.53,2.67,3-.23,2-1.88,3.22-.56,1.44-2.87.8-2.53,1.94-.56-1.55h-1.55l-1.8,1.69L202,70l1,2.58-1.72,2.58-2.62.47L196.5,73.4l-.65,2.41,1.77,2.75,1.15,2.75ZM139.71,48.12l1.38,1.78.25-.31L142,50l.65-.08-.73-1.28.25-.8-2.45.31Zm8.72,3.64-1.29-.64-.59.31h0l-1,.58-1.86-.5L142.8,50l-.17.47-1,.17-.56-.17L140,51.51l-.65-1.61-.73.25v-.8l-1-1-1.24-2-1.55-.67L133,43.21v1.94l2.11,1.78L137,48.12h-1.15v1.22l-1,.25-.39-2.41-1.88-.8-1.07-.83-.48.33.39.72L131,47.82h-1.24l-.14-1.44.82-.5L130.4,45l-3.18.72v.89l-1,.33v.56l-.59-.08v-.22h-.06l-2.14.31-1.72,1.86h-1.55l-.73,1,2.7-.17,2.76-1.22h2.22l1.86-.31,2.7.31-.82,2.91,2.7.47,2,1.3h1.77l.9-1.22,3.12.56,5.46,1.14.08.72.08.25,1.21-.33-.56-.89.82-2.08Zm49.19,28.89-.39-.22.34.22Zm-16.4-9.07-.9,2.16.9,1.19,1.46-.47-.56-1.22-.9-1.67Zm30.6-10.71h-1.63l-.48,2.08.25,1,1.29-1.28.56-1.78Zm-2.53,8.44,2,1.22,1.15,1.36.14-1.86-1.72-1.36V66.41l-1.38-.5-.17,3.39Zm-4.25,8-3.18.8-.23,1.61,1.86,2.41,2.87.33,1.07-2.08,1.29-1-.56-1.86.56-1.19-.56-1.22-.73-.89L205,77.35Zm8.58.89-.9.67-2.7.22L208.73,81v3.86l1.88-2.41,1,1,.56-1.22-.9-.86.9-1.22-1.32-.33,2.22-.31.56-1.22Zm.34-4.5-.34-1.53-.82,1.19-1.55.33-.42,1.19,1.58-.64.14,1.53,2.39-1.53-1-.56ZM213.06,87l1-1.22-4.39.89-5.63-1.22-3.6-1.19.9,1.53,4.89,1.44,6.78-.22Zm26.61.31-3.94-.64-3.09-3-2.84.94L225,83.4,222,81.23l-1.55.64L219,80.34h-2.78l3.35,1.83-2.14.25.34,1,4.5.89-.82,2.08L225,87l1.32-.67L229,88.56h4.22l.68-1.53L239,88.78l.68-1.44ZM208.65,70l-1.07,3.39L209.29,71l-.65-1ZM236.24,83.4l.39-1.86-.9,1.61-1.86.25Zm6.53-.64-5-.64,4.64,1.28,2.78,2.08-2.45-2.72Zm-13,14.88-1.32-2.72-2-.56-.9-4.27-.73-1.78-1.15,2.41v2.41l-2.53-.64-.9-3.14-3.18-1.05-1.88,1.05-.82,1.69-1.55-1L211,92.25l-2,.56-.34,1.86-5.46,1.78-.82,4.27,1.72,3.94-1.72,1.11,1.38,1.22,4.16.42,3.91-2.19,3-.56,2.93,3L219,106.1l.87,3.3,1.8.8,2.22-.47,1.94,1.53,3.35-3.39,1.55-4.11,1.55-.64-.73-3.05-1.77-2.44Zm-7.51,13.93-.51,1.22.65,2.08,3-1.19.17-1.78-1.72.08-1.55-.42Zm22.36-3.3-1.32-.64v1.3l.73,1.44-1,.56.82,1.86,2.11-.89,1.55-2.75-1.55.33-1.29-1.22Zm-3.12,5.41-1.86,1.19-3.26,2.75,1.21.8,2.62-2.25,2.19-1,.59-1.78-.59-1-.9,1.22ZM241.44,98l.51-.72L239.42,96l2,1.94Zm6.61-3,1.24.72,2.87-2.66L248.05,95Zm-4.56-3.39L241.87,91l3,4-1.38-3.39ZM60.36,57l-1.21.75.25-.42-.68-.08V56.5l.68.72.14-.25ZM42.67,9.41,42,10.6h1.86v1.05h.82l2.62-.39,3.18-.67L50,9.88H48.63l.73-1.19H48V7.55h-.65L46,9.41,44.69,8.19H42L40,8.69l-.65,1.19h2l1.32-.47Zm14.2-1.05h.9L58.17,8l-.31-1.14L57,6.49V6.11H55.72l.17,1.28,1,1Zm-19.69,7,1.41-.08v-.42l.65-.17,1-1.69.82.5-.82.31V15l.56-.42-.56.89v.58l2.11.39,2.7.33,1.29-.72,1.24.72L50,16.9l.08-.64-1.32-1.05L49.36,14l.73-.8.25-1L47.9,12l-.34,1.36-1.15.17-.31.89-1.24-1.78-.73.72-.48-.47.23-.72L42.33,12l-.23-.64L38.9,11.1l-1.29-.33.34.58-1.58,2v.8l.51.47.31.75ZM107.05,2.8h-1.38l-1.55.8L102,3.44l-1.38.8.48-1.44L99.2,2.55l1.66-.31L102,2.16l-1-.64-2.36-.25L97.43.86l-2,.42,2.28-1L94.56,0,92.2.47,88.52.86l-1.63.67-2.11.08L84,2.55l-1.72-.64-3.09.64-1.72.25L76.06,4.08l-1.8.75,1,.64-1.38.64-2.11.25L70.18,7.63l1.55.64-1.15.67.73.64h2.22L73,10.3l5.54.17,1.24.89L79.46,14l1.15.89-1.15,1,1.88.33-1.63.08.08,1.53,2.36.31-.82.58H80.05L79.46,20l.82,2.25L82.16,25v1l1.38,1.91,2.22.8.56-.8,2.05-2.33.08-3,1.29.22.56-.89,1.32-.06L92.85,21l1.88-1.69,2.45-.08.73-.72,3.26-.58.25-.64-2.7-.22-.17-1.22,1,.64,2-.08-1.88-1.19.25-.8,1.21.64.65-1.22-.73-.94,1.88-.67-1.15-1.28h.9l-.82-1.36h.9l.82.22.34-.86-1.24-1.22.25-2.25,1.88-.25.31-.89L108,3.44l-.9-.64ZM83.48,78.4l-2.22-.25-.9-.86-.56.64L77.52,76.4l-.82.22-1.24-1.44.9-.64L75.16,73H73.67l-.82-.89-2.36-.25-1-1.69L68.6,70l-.82-2.11H62.08l-.9-1.28-1.13.14-1.55.5L57,67.47,55.89,69.3l.65-1.78-1.72.75-2.28-.08L52.2,67l.34-1.14V64.3L51,63.36l-1.24-.17-.23.39L48,63.19l.51-.89L50.09,62l-.56-1.44.48-.47-.34-1.69-.73.17-1.29.22-1.07,1.14-2.11.17-2.14-.8-.23-2.41,1.38-1.39v-1l-.82-.89,1.21.31,1.8-.89.17-.56.9.17.17.64h1.38l1.24.64v-1h.82l.9.67h2v1.91l.9,1.47,1.15.31.23-.89v-2.8L55,52.87l2.62-3.44L59,49.26,59.4,48l.9-.22-.9-.72.23-.8L61,45.62l1.13-1.28L64,43.93l.42-1.28L64,42.32l.65-.86L66.75,41l1.94-.56L69,41.6l-.48,1.05-.51.89,1.8.33.42-.89.82-.58,1.63-.47V40.49l-1-.42v.64l-.9.33-1.24-.33.68-1.44-.42-.64H68.69l-2.59.72,2.59-1.28,4.25.22,1.63-.64.34,1-1.72.72.34.5,1.38.86.48-.64.59,1.3.82-.67H78l-.17-2.08-1.21-.33L76,37.35l.82-.42V34.19L74.9,33l-1.55-.33-.17-2-1.07-1.94-.39-1.86-.65.33-.9-.64-.34,1.69L68.69,29l-.9-1.44.9-.72-.9-1.14-1.29-.08-.65-1H62.41l.34,1.3-1,.64.65.8-.9,1.19.9,1-.65,1.61L60,32.19l.25.72v2H59l.42-1.22-.59-.8V31.72l-1.21-.25-1.72-.72-1.72-1-.9.17-.73-2-1.24-.56.82-2,1.15-.64,1.24-.08.14-1.44,2-.33,1.46-1.61.73-1.44,1.72-.31,1.24-.67-1.15-.47L60.3,16.9h-1l-.9,1.44-.82-1.22-1.55-.56.31-1.05-.82-.64,1-2.41,1.8-.47-2-1-1.29,1.44L55,14.88l-1.24,1.39.42.86-1.88.67-.39-1.53-1.8.86L50,18.34,46.27,16.9l-1.8.47-.82,1.22-4-.67V16.57l-2.31.25-1.72-1.61-1,.17v1.11L33,15.37l-2.7.89-1.55.56-1.15-.56-1,.56-1.86-1-3.35-.47-.73.72-.82-.72L18,15.21l-.82-.89-1.49.08-.39-1L13.78,14,9.45,15l-1.8,1.86,1.8,2-.25.42-1.86-.64-1.49.64,1,2.08,1.24-.56,1.13.56-1.13.89-.42.72L6.1,22.84,4.56,24v1.69l1.29.56,1.32-.31L6.67,27.2l1.63.17.25.72L5.12,29.94,0,31.3v.42l5.46-1.47,6-3.44-.82-.89-.68-.33h1.49l2.11-1.86v.67l-1,1.19,2.05-.25,1.13.25V24.7l.9.25,1.88.64,1.32-.89.23-.72,1.8.72-1.21.89.65,1.28,1,.5.56,3.39,1,.72.9-.33,1,1.05v1.28l.68.72-1.24.5,1.24,1.86.73.56L25.62,42l2.5,7.58.59,1.61,1.55.47.39,2.25.82,1.22-.82.89.59.89,1.46,1.44.73,1.28,1.38.64.34-.22-.56-1.3-1.32-2.16L32.71,55l-.25-1.44h.82l.17,1.91,1.24,1.78,2.93,2.83.73.22,1.24,1.3,1.77,1.05,1.88,1.53,2,.64,1.88.72,3.26,3.3,1,.64,1.32.72,3.26-.89-.17.08-.17,2.5L56.06,74l-2.78,2,.42,2.41-1.58,1,.51,1.05,2.7,2.64.06,1.61,2.78,3.47,1.88.33.31,2.08L61,91.61l-.25,4.83-.65,1.78.25,4.91-.76,5.13,1.07.67L60.05,112l-1,.8.82,3.39,1.55,1.78v1l.51.8-.76.42,2,1.11h1.72l2.28.75.9-.75-2.19-1.11-.82-.89H63.31L65,118.09l-1.55-.64,2.28-2.72-1.24-1-.31-1.47,1.21-.39.82-1.44,1.15-.42-1.63-1.53,1.38-.25L68.29,107H69.5l1.8-1.53-.82-2.58h1.15l.17.64,2.36-1.11.08-2.28,2.11-.06.65-1-.08-2.66,1.8-.64.08-1.44L81,93.69l2.7-2.5V86.45L86,83.4l.82-3-2.11-.67L83.48,78.4ZM60.36,60.78l-3.18-.89-2.11-1.53-2.14.47-.65.72,2.53.33,2.14.89,2,.64,1.38-.64Zm8.92,3.77v1L69.36,67l.48-.39v-1.3l.34.17.31-.42h-.82l-.39-.56ZM57.6,56.34h-.08l-.34.64,1.15-.64h-.48l.87-.56H58l-.39.56Zm2.76,2.19-.65-.67-.08,1,.73-.31ZM72.12,121h.82l-.23-.5-.59.5ZM61.18,60l.76-.25-.68-.64-.08.89ZM49.36,7.55,50,6.44l-.65-.8H47.23l-.65.8h2.05L46.58,7l2.78.56Zm2.36-.72v.8l2-.56.76.08v.39h.82V6.83l-1.15-.39L52.88,5.3H51.73l-.17.8,1.24.39-1.07.33ZM52,14.32l.14.39.76,1.05,1.86-1.14L54.09,14l.65-.22L54.17,13l.56-.47V12l-1.21-.17L52.12,12l-.48.8h.82l-.34.39-1.38.17.56,1Zm1.72-3.64-.59.58,2.14.08.14-1,.34-1.14-2,.17-.51.64L52,9.74l-.73-.5-.25.5,1,.94ZM59.4,25.5l1-.56.51-.89,1.29-.25-.65-1-1.63-1.28-.48-.72L59.07,22l-1.29,1.39-.17.89,1.46-.5.56.5-1,.31.73.89Zm0-20-1,.89,1.29,1.19.59-.8,2.36-1.28.73.17L61.18,6.74l1.32.56-1.24.33-1,1,2.11.56,4.89.08-1.15-.72,1.49-.8.65-1.28,1.55-.08-.25-.89h2.05l1.29-1.39,2.45-.47,1.8-1.14,1.38-.39-2.45-.56-2.28-.17L72,.72,67.48.94l-1.55.58H63.15l-.48.64-2.36.08L63,3.61l-.73.47L60.7,3.44l-.82-.31-.25-.58-1.29.17L57,3.22V5.13l1,.33Zm3.66,57.17,1.8-.25-1.8-1H60.53l-1.8.72,1.8.25,2.53.25ZM56,63.27h2.76L58,62.39H56.06l-.08.89Zm9.54.08,1.32.22.23-.64H65.76l-.25.42Zm5.23,55.31-1.15.94,1.24-.31-.08-.64Zm-.17.94h.82l-.25-.14-.56.14Zm.82-104.32v.89l1.07,1.11.39.64L71.08,18l1.21.58.42.64h.82l1.86,1v1.44l-1,1.19-1.46-.31-.56-1.22h-1l.08,1.22,1.46,2.08-.65.58-2-1.14,1.21,1.28V26l-2.28-.8-1.8-2.11-3.6-.64,1.15-.56,1.46.06,1.32-1.28.82-1.36L67.39,18H65.85L65,16.82H61.85l-2.78-.64-.39-1.55,1.63-2,.39-.33L60,12.21l-.56-.94L58.34,11v-.08h-.56v-.8l-.17-.25L56.2,9.74V8.85l1.8.64,1.88-.25,2.19,1.36h4.5l-.48,1.05h2l-.48,1.44h-.51l.59.72,1.21.58.25.64,2.19.25Zm-9-2.5h.34l-.9-.25-.42,2.08,1-1.83Z"/></g></g></svg>