<svg xmlns="http://www.w3.org/2000/svg" viewBox="0 0 12.66 12.66"><defs><style>.cls-1{fill:#bb2032;}</style></defs><title>Asset 3</title><g id="Layer_2" data-name="Layer 2"><g id="Layer_2-2" data-name="Layer 2"><path class="cls-1" d="M12.66,6.33a6.37,6.37,0,0,0-.53-2.53v0h0A6.33,6.33,0,0,0,3.8.53h0A6.34,6.34,0,0,0,.53,8.86v0h0a6.33,6.33,0,0,0,8.31,3.24h0A6.35,6.35,0,0,0,12.66,6.33Zm-5.92,5a1.58,1.58,0,0,0,.65.73,6,6,0,0,1-1.06.1,1.09,1.09,0,1,1,0-2.17,3.07,3.07,0,0,0,.44,0,.74.74,0,0,0-.05.13A1.63,1.63,0,0,0,6.74,11.29ZM6.33,9.41A3.08,3.08,0,1,1,9.4,6.33,3.08,3.08,0,0,1,6.33,9.41Zm-5.69-2a6,6,0,0,1-.1-1.05,1.09,1.09,0,1,1,2.17,0,3.07,3.07,0,0,0,0,.44l-.13-.05a1.63,1.63,0,0,0-1.24,0A1.6,1.6,0,0,0,.64,7.39Zm5.28-6A1.63,1.63,0,0,0,5.27.64,6,6,0,0,1,6.33.55a1.09,1.09,0,0,1,0,2.17,3.07,3.07,0,0,0-.44,0A1.61,1.61,0,0,0,5.91,1.37Zm4,4.52a1.61,1.61,0,0,0,.72.17,1.71,1.71,0,0,0,.66-.14A1.63,1.63,0,0,0,12,5.29a6,6,0,0,1,.1,1.05,1.09,1.09,0,1,1-2.17,0C9.94,6.19,9.93,6,9.92,5.89ZM11.63,4a1.09,1.09,0,0,1-.57,1.41,1.1,1.1,0,0,1-1.44-.55h0a3.63,3.63,0,0,0-2.25-2A1.62,1.62,0,0,0,8,1.63,1.6,1.6,0,0,0,7.66.7,5.81,5.81,0,0,1,11.63,4ZM4,1a1.09,1.09,0,0,1,1.41.57A1.1,1.1,0,0,1,4.87,3h0a3.64,3.64,0,0,0-2,2.25A1.62,1.62,0,0,0,1.63,4.7,1.6,1.6,0,0,0,.7,5,5.8,5.8,0,0,1,4,1ZM1,8.65A1.09,1.09,0,0,1,3,7.8H3a3.63,3.63,0,0,0,2.25,2A1.62,1.62,0,0,0,4.7,11,1.6,1.6,0,0,0,5,12,5.8,5.8,0,0,1,1,8.65Zm7.62,3a1.09,1.09,0,0,1-.85-2h0a3.63,3.63,0,0,0,2-2.25A1.62,1.62,0,0,0,11,8,1.6,1.6,0,0,0,12,7.67,5.83,5.83,0,0,1,8.64,11.64Z"/></g></g></svg>