<?xml version="1.0" encoding="utf-8"?>
<!-- Generator: Adobe Illustrator 20.0.0, SVG Export Plug-In . SVG Version: 6.00 Build 0)  -->
<svg version="1.1" id="Layer_1" xmlns="http://www.w3.org/2000/svg" xmlns:xlink="http://www.w3.org/1999/xlink" x="0px" y="0px"
	 viewBox="0 0 150 40" style="enable-background:new 0 0 150 40;" xml:space="preserve">
<style type="text/css">
	.st0{fill:#B5B5B6;}
</style>
<g id="Layer_2">
	<g id="Layer_2-2">
		<path class="st0" d="M21.6,9.2h2.9V8.1h-4.7V3.4h-0.5v4.7h-1.3V0.7h-0.5v7.4H2.1v1.1h1v15.5h17.1V9.2h0.8v17.6h0.7V9.2z M6,11.8
			H4.9v-1.2h1.2L6,11.8z M6,13.5H4.9v-1.2h1.2L6,13.5z M6,15.1H4.9v-1.2h1.2L6,15.1z M6,16.7H4.9v-1.2h1.2L6,16.7z M6,18.4H4.9v-1.2
			h1.2L6,18.4z M6,20H4.9v-1.2h1.2L6,20z M6,21.6H4.9v-1.2h1.2L6,21.6z M6,23.3H4.9v-1.2h1.2L6,23.3z M7.8,11.8H6.6v-1.2h1.2
			L7.8,11.8z M7.8,13.5H6.6v-1.2h1.2L7.8,13.5z M7.8,15.1H6.6v-1.2h1.2L7.8,15.1z M7.8,16.7H6.6v-1.2h1.2L7.8,16.7z M7.8,18.4H6.6
			v-1.2h1.2L7.8,18.4z M7.8,20H6.6v-1.2h1.2L7.8,20z M7.8,21.6H6.6v-1.2h1.2L7.8,21.6z M7.8,23.3H6.6v-1.2h1.2L7.8,23.3z M9.6,11.8
			H8.4v-1.2h1.2L9.6,11.8z M9.6,13.5H8.4v-1.2h1.2L9.6,13.5z M9.6,15.1H8.4v-1.2h1.2L9.6,15.1z M9.6,16.7H8.4v-1.2h1.2L9.6,16.7z
			 M9.6,18.4H8.4v-1.2h1.2L9.6,18.4z M9.6,20H8.4v-1.2h1.2L9.6,20z M9.6,21.6H8.4v-1.2h1.2L9.6,21.6z M9.6,23.3H8.4v-1.2h1.2
			L9.6,23.3z M11.3,11.8h-1.2v-1.2h1.2L11.3,11.8z M11.3,13.5h-1.2v-1.2h1.2L11.3,13.5z M11.3,15.1h-1.2v-1.2h1.2L11.3,15.1z
			 M11.3,16.7h-1.2v-1.2h1.2L11.3,16.7z M11.3,18.4h-1.2v-1.2h1.2L11.3,18.4z M11.3,20h-1.2v-1.2h1.2L11.3,20z M11.3,21.6h-1.2v-1.2
			h1.2L11.3,21.6z M11.3,23.3h-1.2v-1.2h1.2L11.3,23.3z M13.1,11.8h-1.2v-1.2H13L13.1,11.8z M13.1,13.5h-1.2v-1.2H13L13.1,13.5z
			 M13.1,15.1h-1.2v-1.2H13L13.1,15.1z M13.1,16.7h-1.2v-1.2H13L13.1,16.7z M13.1,18.4h-1.2v-1.2H13L13.1,18.4z M13.1,20h-1.2v-1.2
			H13L13.1,20z M13.1,21.6h-1.2v-1.2H13L13.1,21.6z M13.1,23.3h-1.2v-1.2H13L13.1,23.3z M14.8,11.8h-1.2v-1.2h1.2V11.8z M14.8,13.5
			h-1.2v-1.2h1.2V13.5z M14.8,15.1h-1.2v-1.2h1.2V15.1z M14.8,16.7h-1.2v-1.2h1.2V16.7z M14.8,18.4h-1.2v-1.2h1.2V18.4z M14.8,20
			h-1.2v-1.2h1.2V20z M14.8,21.6h-1.2v-1.2h1.2V21.6z M14.8,23.3h-1.2v-1.2h1.2V23.3z M16.5,11.8h-1.2v-1.2h1.2L16.5,11.8z
			 M16.5,13.5h-1.2v-1.2h1.2L16.5,13.5z M16.5,15.1h-1.2v-1.2h1.2L16.5,15.1z M16.5,16.7h-1.2v-1.2h1.2L16.5,16.7z M16.5,18.4h-1.2
			v-1.2h1.2L16.5,18.4z M16.5,20h-1.2v-1.2h1.2L16.5,20z M16.5,21.6h-1.2v-1.2h1.2L16.5,21.6z M16.5,23.3h-1.2v-1.2h1.2L16.5,23.3z
			 M18.3,11.8h-1.2v-1.2h1.2V11.8z M18.3,13.5h-1.2v-1.2h1.2V13.5z M18.3,15.1h-1.2v-1.2h1.2V15.1z M18.3,16.7h-1.2v-1.2h1.2V16.7z
			 M18.3,18.4h-1.2v-1.2h1.2V18.4z M18.3,20h-1.2v-1.2h1.2V20z M18.3,21.6h-1.2v-1.2h1.2V21.6z M18.3,23.3h-1.2v-1.2h1.2V23.3z"/>
		<polygon class="st0" points="140.9,38.8 7.9,38.8 7.1,36.6 140.5,36.6 		"/>
		<path class="st0" d="M3.1,26l3.6,9.6h134l7-10.3h-11.5l-1.8,2.4h-122l-1-1.7L3.1,26z M141.1,29.7c0-0.5,0.2-1,0.5-1
			c0.3,0,0.6,0.3,0.6,0.9c0,0.5-0.2,1-0.5,1c0,0,0,0,0,0C141.4,30.6,141.1,30.2,141.1,29.7C141.1,29.7,141.1,29.7,141.1,29.7z"/>
	</g>
</g>
</svg>
