<?xml version="1.0" encoding="UTF-8" standalone="no"?>
<svg
   xmlns:dc="http://purl.org/dc/elements/1.1/"
   xmlns:cc="http://creativecommons.org/ns#"
   xmlns:rdf="http://www.w3.org/1999/02/22-rdf-syntax-ns#"
   xmlns:svg="http://www.w3.org/2000/svg"
   xmlns="http://www.w3.org/2000/svg"
   viewBox="0 0 589.70001 372.96249"

   xml:space="preserve"
   version="1.1"
   id="svg2"><g
     transform="matrix(1.25,0,0,-1.25,0,372.9625)"
     id="g10"><g
       transform="scale(0.1,0.1)"
       id="g12"><g
         id="g14"><g
           clip-path="url(#clipPath18)"
           id="g16"><path
             id="path22"
             style="fill:#c41b31;fill-opacity:1;fill-rule:nonzero;stroke:none"
             d="m 142.789,2845.91 0,-846.64 897.651,0 0,-1856.399 1443.33,0 459.04,670.551 461.52,-670.551 1071.1,0 -923.26,1535.109 821.24,1167.93 -1048.12,0 -1336.26,-1925.351 0,1078.711 331.53,0 581.41,846.64 -2759.181,0" /><path
             id="path24"
             style="fill:#253b7d;fill-opacity:1;fill-rule:nonzero;stroke:none"
             d="m 3404.33,142.871 -461.52,670.551 -459.04,-670.551 -1443.33,0 0,1856.399 -897.651,0 0,846.64 2759.181,0 -581.41,-846.64 -331.53,0 0,-1078.711 318.8,459.041 1017.46,1466.31 1048.12,0 -821.24,-1167.93 923.26,-1535.109 -1071.1,0 z m 1188.41,66.231 -874.73,1463.758 764.96,1093.94 158.23,216.85 -1387.34,0 -43.4,-56.2 -818.54,-1181.64 -265.16,-381.58 0,497.31 265.24,0 43.25,58.69 578.99,849.13 147.84,214.29 -3162.08,0 0,-1122.11 902.77,0 L 902.77,0 2557.7,0 2596.04,61.25 2942.81,566.109 3292.13,61.25 3332.97,0 4717.6,0 4592.74,209.102" /></g></g></g></g></svg>
