<?xml version="1.0" encoding="utf-8"?>
<!-- Generator: Adobe Illustrator 18.0.0, SVG Export Plug-In . SVG Version: 6.00 Build 0)  -->
<!DOCTYPE svg PUBLIC "-//W3C//DTD SVG 1.1//EN" "http://www.w3.org/Graphics/SVG/1.1/DTD/svg11.dtd">
<svg version="1.1" id="Layer_1" xmlns="http://www.w3.org/2000/svg" xmlns:xlink="http://www.w3.org/1999/xlink" x="0px" y="0px"
	 viewBox="2.8 37.2 187.1 118.3" enable-background="new 2.8 37.2 187.1 118.3" xml:space="preserve">
<g>
	<polygon fill="#D31145" points="5.8,40.2 123.2,40.2 96.9,79.4 84.9,79.4 84.9,109.2 132.6,40.2 181.3,40.2 147.4,89.3 
		184.8,152.6 135.8,152.6 119.8,128.1 102.8,152.6 41.3,152.6 41.3,79.4 5.8,79.4 	"/>
	<path fill="#FFFFFF" d="M2.8,37.2h125.9l-3.1,4.6L99.4,81.1l-0.9,1.3H87.9v17.4l42.3-61.2l0.9-1.3h55.9l-3.2,4.6l-32.8,47.6
		l36.4,61.6l2.6,4.4h-55.7l-0.9-1.3l-13.6-20.8l-14.5,20.8l-0.9,1.3h-66V82.4H2.8L2.8,37.2L2.8,37.2z M8.7,43.1v33.3h35.5v73.1h57
		l16.1-23.1l2.5-3.6l2.4,3.7l15.1,23.1h42.2l-34.7-58.8l-1-1.6l1.1-1.6l30.7-44.5h-41.6l-46.8,67.7l-5.4-1.7V76.5h13.4l22.3-33.3
		L8.7,43.1L8.7,43.1z"/>
</g>
</svg>
